<?xml version="1.0" standalone="no"?><!DOCTYPE svg PUBLIC "-//W3C//DTD SVG 1.1//EN" "http://www.w3.org/Graphics/SVG/1.1/DTD/svg11.dtd"><svg t="1711301408934" class="icon" viewBox="0 0 1024 1024" version="1.1" xmlns="http://www.w3.org/2000/svg" p-id="5518" id="mx_n_1711301408936" xmlns:xlink="http://www.w3.org/1999/xlink" width="200" height="200"><path d="M925.724444 879.502222c-22.186667 22.186667-58.026667 22.186667-80.213333 0-9.671111 9.102222-18.773333 18.773333-27.875555 27.875556-13.084444 13.084444-26.737778 25.031111-40.96 36.408889H215.182222c-14.222222-11.377778-27.875556-23.324444-40.96-36.408889-124.586667-123.448889-162.133333-301.511111-113.208889-457.955556l-44.373333-44.373333C-5.546667 382.862222-5.546667 346.453333 16.64 324.266667s58.026667-22.186667 80.213333 0l28.444445 28.444444c13.084444 13.084444 34.702222 13.084444 48.355555 0s13.084444-34.702222 0-48.355555l-52.337777-52.337778c-13.084444-13.084444-13.084444-34.702222 0-48.355556s34.702222-13.084444 48.355555 0l72.248889 72.248889c13.084444 13.084444 34.702222 13.084444 48.355556 0 13.084444-13.084444 13.084444-34.702222 0-48.355555l-31.288889-31.288889c175.217778-106.382222 406.755556-84.195556 558.08 67.128889 99.555556 99.555556 143.36 234.382222 131.413333 364.657777l64.853333 65.991111c13.084444 13.084444 13.084444 34.702222 0 48.355556s-34.702222 13.084444-48.355555 0l-63.715556-64.284444c-13.084444-13.084444-34.702222-13.084444-48.355555 0s-13.084444 34.702222 0 48.355555l72.248889 72.248889c22.755556 22.755556 22.755556 58.595556 0.568888 80.782222z" fill="#E5EEFC" p-id="5519"></path><path d="M82.062222 164.977778m-34.133333 0a34.133333 34.133333 0 1 0 68.266667 0 34.133333 34.133333 0 1 0-68.266667 0Z" fill="#E5EEFC" p-id="5520"></path><path d="M222.008889 1012.622222c3.413333 0 5.688889 2.275556 5.688889 5.688889s-2.275556 5.688889-5.688889 5.688889H74.097778c-3.413333 0-5.688889-2.275556-5.688889-5.688889s2.275556-5.688889 5.688889-5.688889h147.911111z m682.666667 0c3.413333 0 5.688889 2.275556 5.688888 5.688889s-2.275556 5.688889-5.688888 5.688889H347.164444c-3.413333 0-5.688889-2.275556-5.688888-5.688889s2.275556-5.688889 5.688888-5.688889h557.511112z m-358.4-39.822222c3.413333 0 5.688889 2.275556 5.688888 5.688889s-2.275556 5.688889-5.688888 5.688889h-34.133334c-3.413333 0-5.688889-2.275556-5.688889-5.688889s2.275556-5.688889 5.688889-5.688889h34.133334z m204.8 0c3.413333 0 5.688889 2.275556 5.688888 5.688889s-2.275556 5.688889-5.688888 5.688889h-147.911112c-3.413333 0-5.688889-2.275556-5.688888-5.688889s2.275556-5.688889 5.688888-5.688889h147.911112z m-284.444445 0c3.413333 0 5.688889 2.275556 5.688889 5.688889s-2.275556 5.688889-5.688889 5.688889H210.631111c-3.413333 0-5.688889-2.275556-5.688889-5.688889s2.275556-5.688889 5.688889-5.688889h256z m358.4-34.133333c3.413333 0 5.688889 2.275556 5.688889 5.688889s-2.275556 5.688889-5.688889 5.688888H96.853333c-3.413333 0-5.688889-2.275556-5.688889-5.688888s2.275556-5.688889 5.688889-5.688889h728.177778z m91.022222 0c3.413333 0 5.688889 2.275556 5.688889 5.688889s-2.275556 5.688889-5.688889 5.688888h-34.133333c-3.413333 0-5.688889-2.275556-5.688889-5.688888s2.275556-5.688889 5.688889-5.688889h34.133333zM660.053333 0c18.773333 0 34.133333 15.36 34.133334 34.133333s-15.36 34.133333-34.133334 34.133334-34.133333-15.36-34.133333-34.133334 15.36-34.133333 34.133333-34.133333z m0 11.377778c-12.515556 0-22.755556 10.24-22.755555 22.755555s10.24 22.755556 22.755555 22.755556 22.755556-10.24 22.755556-22.755556-10.24-22.755556-22.755556-22.755555zM830.72 551.822222c18.773333 0 34.133333 15.36 34.133333 34.133334s-15.36 34.133333-34.133333 34.133333-34.133333-15.36-34.133333-34.133333 15.36-34.133333 34.133333-34.133334z m0 11.377778c-12.515556 0-22.755556 10.24-22.755556 22.755556s10.24 22.755556 22.755556 22.755555 22.755556-10.24 22.755556-22.755555-10.24-22.755556-22.755556-22.755556zM495.075556 199.111111c18.773333 0 34.133333 15.36 34.133333 34.133333s-15.36 34.133333-34.133333 34.133334-34.133333-15.36-34.133334-34.133334 15.36-34.133333 34.133334-34.133333z m0 11.377778c-12.515556 0-22.755556 10.24-22.755556 22.755555s10.24 22.755556 22.755556 22.755556 22.755556-10.24 22.755555-22.755556-10.24-22.755556-22.755555-22.755555zM182.186667 739.555556c18.773333 0 34.133333 15.36 34.133333 34.133333s-15.36 34.133333-34.133333 34.133333-34.133333-15.36-34.133334-34.133333 15.36-34.133333 34.133334-34.133333z m0 11.377777c-12.515556 0-22.755556 10.24-22.755556 22.755556s10.24 22.755556 22.755556 22.755555 22.755556-10.24 22.755555-22.755555-10.24-22.755556-22.755555-22.755556zM830.72 130.844444c3.413333 0 5.688889 2.275556 5.688889 5.688889v11.377778h11.377778c3.413333 0 5.688889 2.275556 5.688889 5.688889s-2.275556 5.688889-5.688889 5.688889h-11.377778v11.377778c0 3.413333-2.275556 5.688889-5.688889 5.688889s-5.688889-2.275556-5.688889-5.688889v-11.377778h-11.377778c-3.413333 0-5.688889-2.275556-5.688889-5.688889s2.275556-5.688889 5.688889-5.688889h11.377778v-11.377778c0-3.413333 2.275556-5.688889 5.688889-5.688889zM392.675556 45.511111c3.413333 0 5.688889 2.275556 5.688888 5.688889v11.377778h11.377778c3.413333 0 5.688889 2.275556 5.688889 5.688889s-2.275556 5.688889-5.688889 5.688889h-11.377778v11.377777c0 3.413333-2.275556 5.688889-5.688888 5.688889s-5.688889-2.275556-5.688889-5.688889v-11.377777h-11.377778c-3.413333 0-5.688889-2.275556-5.688889-5.688889s2.275556-5.688889 5.688889-5.688889h11.377778V51.2c0-3.413333 2.275556-5.688889 5.688889-5.688889zM130.986667 608.711111c3.413333 0 5.688889 2.275556 5.688889 5.688889v11.377778h11.377777c3.413333 0 5.688889 2.275556 5.688889 5.688889s-2.275556 5.688889-5.688889 5.688889h-11.377777v11.377777c0 3.413333-2.275556 5.688889-5.688889 5.688889s-5.688889-2.275556-5.688889-5.688889v-11.377777h-11.377778c-3.413333 0-5.688889-2.275556-5.688889-5.688889s2.275556-5.688889 5.688889-5.688889h11.377778v-11.377778c0-3.413333 2.275556-5.688889 5.688889-5.688889zM671.431111 267.377778c3.413333 0 5.688889 2.275556 5.688889 5.688889v11.377777h11.377778c3.413333 0 5.688889 2.275556 5.688889 5.688889s-2.275556 5.688889-5.688889 5.688889h-11.377778v11.377778c0 3.413333-2.275556 5.688889-5.688889 5.688889s-5.688889-2.275556-5.688889-5.688889v-11.377778h-11.377778c-3.413333 0-5.688889-2.275556-5.688888-5.688889s2.275556-5.688889 5.688888-5.688889h11.377778v-11.377777c0-3.413333 2.275556-5.688889 5.688889-5.688889z" fill="#CCDEF9" p-id="5521"></path><path d="M762.453333 785.066667c0 18.773333-15.36 34.133333-34.133333 34.133333H318.72c-18.773333 0-34.133333-15.36-34.133333-34.133333V443.733333c0-18.773333 15.36-34.133333 34.133333-34.133333h409.6c18.773333 0 34.133333 15.36 34.133333 34.133333v341.333334z m-11.377777 0V443.733333c0-11.946667-9.671111-22.186667-21.617778-22.755555H318.72c-11.946667 0-22.186667 9.671111-22.755556 21.617778V785.066667c0 11.946667 9.671111 22.186667 21.617778 22.755555H728.32c11.946667 0 22.186667-9.671111 22.755556-21.617778v-1.137777z" fill="#00285C" p-id="5522"></path><path d="M762.453333 785.066667c0 18.773333-15.36 34.133333-34.133333 34.133333H318.72c-18.773333 0-34.133333-15.36-34.133333-34.133333V443.733333c0-18.773333 15.36-34.133333 34.133333-34.133333h409.6c18.773333 0 34.133333 15.36 34.133333 34.133333v341.333334z m-11.377777 0V443.733333c0-11.946667-9.671111-22.186667-21.617778-22.755555H318.72c-11.946667 0-22.186667 9.671111-22.755556 21.617778V785.066667c0 11.946667 9.671111 22.186667 21.617778 22.755555H728.32c11.946667 0 22.186667-9.671111 22.755556-21.617778v-1.137777z" fill="#FFFFFF" fill-opacity=".4" p-id="5523"></path><path d="M762.453333 785.066667c0 18.773333-15.36 34.133333-34.133333 34.133333H318.72c-18.773333 0-34.133333-15.36-34.133333-34.133333V443.733333c0-18.773333 15.36-34.133333 34.133333-34.133333h409.6c18.773333 0 34.133333 15.36 34.133333 34.133333v341.333334z m-11.377777 0V443.733333c0-11.946667-9.671111-22.186667-21.617778-22.755555H318.72c-11.946667 0-22.186667 9.671111-22.755556 21.617778V785.066667c0 11.946667 9.671111 22.186667 21.617778 22.755555H728.32c11.946667 0 22.186667-9.671111 22.755556-21.617778v-1.137777z" fill="#667E9D" p-id="5524"></path><path d="M728.32 785.066667V472.177778c0-18.773333-15.36-34.133333-34.133333-34.133334H295.964444v312.888889c0 18.773333 15.36 34.133333 34.133334 34.133334h398.222222z" fill="#CCDEF9" p-id="5525"></path><path d="M688.497778 494.933333v341.333334c0 18.773333-15.36 34.133333-34.133334 34.133333H244.764444c-18.773333 0-34.133333-15.36-34.133333-34.133333V494.933333c0-18.773333 15.36-34.133333 34.133333-34.133333h409.6c18.773333 0 34.133333 15.36 34.133334 34.133333z" fill="#FFFFFF" p-id="5526"></path><path d="M688.497778 836.266667c0 18.773333-15.36 34.133333-34.133334 34.133333H244.764444c-18.773333 0-34.133333-15.36-34.133333-34.133333V494.933333c0-18.773333 15.36-34.133333 34.133333-34.133333h409.6c18.773333 0 34.133333 15.36 34.133334 34.133333v341.333334z m-11.377778 0V494.933333c0-11.946667-9.671111-22.186667-21.617778-22.755555H244.764444c-11.946667 0-22.186667 9.671111-22.755555 21.617778V836.266667c0 11.946667 9.671111 22.186667 21.617778 22.755555H654.364444c11.946667 0 22.186667-9.671111 22.755556-21.617778v-1.137777z" fill="#00285C" p-id="5527"></path><path d="M688.497778 836.266667c0 18.773333-15.36 34.133333-34.133334 34.133333H244.764444c-18.773333 0-34.133333-15.36-34.133333-34.133333V494.933333c0-18.773333 15.36-34.133333 34.133333-34.133333h409.6c18.773333 0 34.133333 15.36 34.133334 34.133333v341.333334z m-11.377778 0V494.933333c0-11.946667-9.671111-22.186667-21.617778-22.755555H244.764444c-11.946667 0-22.186667 9.671111-22.755555 21.617778V836.266667c0 11.946667 9.671111 22.186667 21.617778 22.755555H654.364444c11.946667 0 22.186667-9.671111 22.755556-21.617778v-1.137777z" fill="#FFFFFF" fill-opacity=".4" p-id="5528"></path><path d="M688.497778 836.266667c0 18.773333-15.36 34.133333-34.133334 34.133333H244.764444c-18.773333 0-34.133333-15.36-34.133333-34.133333V494.933333c0-18.773333 15.36-34.133333 34.133333-34.133333h409.6c18.773333 0 34.133333 15.36 34.133334 34.133333v341.333334z m-11.377778 0V494.933333c0-11.946667-9.671111-22.186667-21.617778-22.755555H244.764444c-11.946667 0-22.186667 9.671111-22.755555 21.617778V836.266667c0 11.946667 9.671111 22.186667 21.617778 22.755555H654.364444c11.946667 0 22.186667-9.671111 22.755556-21.617778v-1.137777z" fill="#667E9D" p-id="5529"></path><path d="M377.122133 534.528c3.3792-0.472178 5.950578 1.467733 6.428445 4.846933 2.770489 19.717689-0.637156 32.256-12.9536 34.565689l-1.1264 0.159289-57.457778 8.078222c-3.384889 0.472178-5.956267-1.467733-6.428444-4.846933-0.398222-2.816 1.536-5.387378 4.278044-6.3488l0.5632-0.073956 58.026667-8.157866c4.5056-0.631467 6.4512-7.224889 4.391822-21.873778-0.961422-2.736356 0.898844-5.870933 4.278044-6.343111z" fill="#00285C" p-id="5530"></path><path d="M377.122133 534.528c3.3792-0.472178 5.950578 1.467733 6.428445 4.846933 2.770489 19.717689-0.637156 32.256-12.9536 34.565689l-1.1264 0.159289-57.457778 8.078222c-3.384889 0.472178-5.956267-1.467733-6.428444-4.846933-0.398222-2.816 1.536-5.387378 4.278044-6.3488l0.5632-0.073956 58.026667-8.157866c4.5056-0.631467 6.4512-7.224889 4.391822-21.873778-0.961422-2.736356 0.898844-5.870933 4.278044-6.343111z" fill="#FFFFFF" fill-opacity=".4" p-id="5531"></path><path d="M377.122133 534.528c3.3792-0.472178 5.950578 1.467733 6.428445 4.846933 2.770489 19.717689-0.637156 32.256-12.9536 34.565689l-1.1264 0.159289-57.457778 8.078222c-3.384889 0.472178-5.956267-1.467733-6.428444-4.846933-0.398222-2.816 1.536-5.387378 4.278044-6.3488l0.5632-0.073956 58.026667-8.157866c4.5056-0.631467 6.4512-7.224889 4.391822-21.873778-0.961422-2.736356 0.898844-5.870933 4.278044-6.343111z" fill="#667E9D" p-id="5532"></path><path d="M476.848356 534.528c-3.3792-0.472178-5.950578 1.467733-6.428445 4.846933-2.7648 19.717689 0.642844 32.256 12.9536 34.565689l1.132089 0.159289 57.457778 8.078222c3.3792 0.472178 5.950578-1.467733 6.428444-4.846933 0.398222-2.816-1.541689-5.387378-4.278044-6.3488l-0.568889-0.073956-58.026667-8.157866c-4.499911-0.631467-6.445511-7.224889-4.391822-21.873778 0.961422-2.736356-0.893156-5.870933-4.278044-6.343111z" fill="#00285C" p-id="5533"></path><path d="M476.848356 534.528c-3.3792-0.472178-5.950578 1.467733-6.428445 4.846933-2.7648 19.717689 0.642844 32.256 12.9536 34.565689l1.132089 0.159289 57.457778 8.078222c3.3792 0.472178 5.950578-1.467733 6.428444-4.846933 0.398222-2.816-1.541689-5.387378-4.278044-6.3488l-0.568889-0.073956-58.026667-8.157866c-4.499911-0.631467-6.445511-7.224889-4.391822-21.873778 0.961422-2.736356-0.893156-5.870933-4.278044-6.343111z" fill="#FFFFFF" fill-opacity=".4" p-id="5534"></path><path d="M476.848356 534.528c-3.3792-0.472178-5.950578 1.467733-6.428445 4.846933-2.7648 19.717689 0.642844 32.256 12.9536 34.565689l1.132089 0.159289 57.457778 8.078222c3.3792 0.472178 5.950578-1.467733 6.428444-4.846933 0.398222-2.816-1.541689-5.387378-4.278044-6.3488l-0.568889-0.073956-58.026667-8.157866c-4.499911-0.631467-6.445511-7.224889-4.391822-21.873778 0.961422-2.736356-0.893156-5.870933-4.278044-6.343111z" fill="#667E9D" p-id="5535"></path><path d="M415.431111 620.088889h34.133333c3.413333 0 5.688889 2.275556 5.688889 5.688889s-2.275556 5.688889-5.688889 5.688889h-34.133333c-3.413333 0-5.688889-2.275556-5.688889-5.688889s2.275556-5.688889 5.688889-5.688889z" fill="#00285C" p-id="5536"></path><path d="M415.431111 620.088889h34.133333c3.413333 0 5.688889 2.275556 5.688889 5.688889s-2.275556 5.688889-5.688889 5.688889h-34.133333c-3.413333 0-5.688889-2.275556-5.688889-5.688889s2.275556-5.688889 5.688889-5.688889z" fill="#FFFFFF" fill-opacity=".4" p-id="5537"></path><path d="M415.431111 620.088889h34.133333c3.413333 0 5.688889 2.275556 5.688889 5.688889s-2.275556 5.688889-5.688889 5.688889h-34.133333c-3.413333 0-5.688889-2.275556-5.688889-5.688889s2.275556-5.688889 5.688889-5.688889z" fill="#667E9D" p-id="5538"></path><path d="M534.897778 640.568889c10.808889-15.36 32.426667-18.773333 47.786666-7.964445l1.137778 1.137778 1.137778 1.137778 101.262222 86.471111c2.275556 2.275556 2.844444 5.688889 0.568889 7.964445-1.706667 2.275556-5.12 2.844444-7.395555 1.137777l-0.568889-0.568889-101.262223-87.04c-0.568889-0.568889-1.137778-1.137778-1.706666-1.137777-9.671111-6.826667-23.324444-5.12-30.72 4.551111l-0.568889 1.137778-95.573333 134.826666c-0.568889 1.137778-1.137778 1.706667-1.706667 2.275556-11.946667 14.222222-32.995556 15.928889-47.217778 4.551111l-1.137778-1.137778-63.715555-54.044444c-7.964444-6.826667-19.911111-7.395556-27.875556-1.137778l-1.137778 0.568889-80.213333 64.853333c-2.275556 1.706667-6.257778 1.706667-7.964444-1.137778-1.706667-2.275556-1.706667-5.688889 0.568889-7.395555l0.568888-0.568889 80.213334-64.853333c12.515556-10.24 30.151111-10.24 42.666666 0l1.137778 1.137777 63.715556 54.613334c9.671111 7.964444 23.893333 6.826667 31.857778-2.275556l0.568888-0.568889 0.568889-1.137778L534.897778 640.568889z" fill="#00285C" p-id="5539"></path><path d="M534.897778 640.568889c10.808889-15.36 32.426667-18.773333 47.786666-7.964445l1.137778 1.137778 1.137778 1.137778 101.262222 86.471111c2.275556 2.275556 2.844444 5.688889 0.568889 7.964445-1.706667 2.275556-5.12 2.844444-7.395555 1.137777l-0.568889-0.568889-101.262223-87.04c-0.568889-0.568889-1.137778-1.137778-1.706666-1.137777-9.671111-6.826667-23.324444-5.12-30.72 4.551111l-0.568889 1.137778-95.573333 134.826666c-0.568889 1.137778-1.137778 1.706667-1.706667 2.275556-11.946667 14.222222-32.995556 15.928889-47.217778 4.551111l-1.137778-1.137778-63.715555-54.044444c-7.964444-6.826667-19.911111-7.395556-27.875556-1.137778l-1.137778 0.568889-80.213333 64.853333c-2.275556 1.706667-6.257778 1.706667-7.964444-1.137778-1.706667-2.275556-1.706667-5.688889 0.568889-7.395555l0.568888-0.568889 80.213334-64.853333c12.515556-10.24 30.151111-10.24 42.666666 0l1.137778 1.137777 63.715556 54.613334c9.671111 7.964444 23.893333 6.826667 31.857778-2.275556l0.568888-0.568889 0.568889-1.137778L534.897778 640.568889z" fill="#FFFFFF" fill-opacity=".4" p-id="5540"></path><path d="M534.897778 640.568889c10.808889-15.36 32.426667-18.773333 47.786666-7.964445l1.137778 1.137778 1.137778 1.137778 101.262222 86.471111c2.275556 2.275556 2.844444 5.688889 0.568889 7.964445-1.706667 2.275556-5.12 2.844444-7.395555 1.137777l-0.568889-0.568889-101.262223-87.04c-0.568889-0.568889-1.137778-1.137778-1.706666-1.137777-9.671111-6.826667-23.324444-5.12-30.72 4.551111l-0.568889 1.137778-95.573333 134.826666c-0.568889 1.137778-1.137778 1.706667-1.706667 2.275556-11.946667 14.222222-32.995556 15.928889-47.217778 4.551111l-1.137778-1.137778-63.715555-54.044444c-7.964444-6.826667-19.911111-7.395556-27.875556-1.137778l-1.137778 0.568889-80.213333 64.853333c-2.275556 1.706667-6.257778 1.706667-7.964444-1.137778-1.706667-2.275556-1.706667-5.688889 0.568889-7.395555l0.568888-0.568889 80.213334-64.853333c12.515556-10.24 30.151111-10.24 42.666666 0l1.137778 1.137777 63.715556 54.613334c9.671111 7.964444 23.893333 6.826667 31.857778-2.275556l0.568888-0.568889 0.568889-1.137778L534.897778 640.568889z" fill="#667E9D" p-id="5541"></path><path d="M674.275556 707.128889c-5.688889-3.413333-11.377778-3.982222-17.066667-2.275556s-10.808889 5.12-14.222222 10.24L556.515556 864.711111c-2.275556 3.413333-2.844444 7.395556-2.844445 11.377778 0 6.257778 2.275556 11.946667 6.826667 15.928889s9.671111 6.826667 15.928889 6.826666h173.511111c3.982222 0 7.964444-1.137778 11.377778-2.844444 5.688889-3.413333 9.102222-7.964444 10.808888-13.653333 1.706667-5.688889 0.568889-11.946667-2.275555-17.066667L682.808889 715.093333c-2.275556-3.413333-5.12-6.257778-8.533333-7.964444z" fill="#FFFFFF" p-id="5542"></path><path d="M658.346667 756.622222h9.671111c3.413333 0 5.688889 2.275556 5.688889 5.688889l-2.844445 62.008889c0 2.844444-2.844444 5.688889-5.688889 5.688889h-3.413333c-2.844444 0-5.688889-2.275556-5.688889-5.688889l-3.413333-62.008889c-0.568889-2.844444 2.275556-5.688889 5.688889-5.688889-0.568889 0 0 0 0 0z" fill="#00285C" p-id="5543"></path><path d="M658.346667 756.622222h9.671111c3.413333 0 5.688889 2.275556 5.688889 5.688889l-2.844445 62.008889c0 2.844444-2.844444 5.688889-5.688889 5.688889h-3.413333c-2.844444 0-5.688889-2.275556-5.688889-5.688889l-3.413333-62.008889c-0.568889-2.844444 2.275556-5.688889 5.688889-5.688889-0.568889 0 0 0 0 0z" fill="#FFFFFF" fill-opacity=".4" p-id="5544"></path><path d="M658.346667 756.622222h9.671111c3.413333 0 5.688889 2.275556 5.688889 5.688889l-2.844445 62.008889c0 2.844444-2.844444 5.688889-5.688889 5.688889h-3.413333c-2.844444 0-5.688889-2.275556-5.688889-5.688889l-3.413333-62.008889c-0.568889-2.844444 2.275556-5.688889 5.688889-5.688889-0.568889 0 0 0 0 0z" fill="#667E9D" p-id="5545"></path><path d="M662.897778 851.057778m-9.102222 0a9.102222 9.102222 0 1 0 18.204444 0 9.102222 9.102222 0 1 0-18.204444 0Z" fill="#00285C" p-id="5546"></path><path d="M662.897778 851.057778m-9.102222 0a9.102222 9.102222 0 1 0 18.204444 0 9.102222 9.102222 0 1 0-18.204444 0Z" fill="#FFFFFF" fill-opacity=".4" p-id="5547"></path><path d="M662.897778 851.057778m-9.102222 0a9.102222 9.102222 0 1 0 18.204444 0 9.102222 9.102222 0 1 0-18.204444 0Z" fill="#667E9D" p-id="5548"></path></svg>